<svg xmlns="http://www.w3.org/2000/svg" viewBox="0 0 512 512" role="img" aria-label="Jayant Kumar logo">
  <defs>
    <linearGradient id="bg" x1="72" y1="56" x2="456" y2="452" gradientUnits="userSpaceOnUse">
      <stop offset="0" stop-color="#f8efe3" />
      <stop offset="0.48" stop-color="#e7c79e" />
      <stop offset="1" stop-color="#de8a75" />
    </linearGradient>
    <radialGradient id="glow" cx="0" cy="0" r="1" gradientTransform="translate(182 146) rotate(62) scale(232)" gradientUnits="userSpaceOnUse">
      <stop offset="0" stop-color="#ffffff" stop-opacity="0.96" />
      <stop offset="0.5" stop-color="#ffffff" stop-opacity="0.24" />
      <stop offset="1" stop-color="#ffffff" stop-opacity="0" />
    </radialGradient>
  </defs>
  <rect width="512" height="512" rx="132" fill="url(#bg)" />
  <rect x="40" y="40" width="432" height="432" rx="112" fill="none" stroke="rgba(255,255,255,0.52)" stroke-width="4" />
  <circle cx="180" cy="158" r="134" fill="url(#glow)" />
  <circle cx="360" cy="356" r="110" fill="#2e7a73" fill-opacity="0.14" />
  <path d="M116 372c42-18 74-44 108-84 25-30 44-67 62-118 10-28 24-50 43-68 24-22 54-35 87-39-12 18-22 38-31 61-17 45-31 89-42 132-10 39-25 72-46 99-26 34-61 61-104 80-28 13-51 19-67 20-12 1-23-2-30-13-5-8-4-21 20-30z" fill="#ffffff" fill-opacity="0.45" />
  <text x="256" y="314" text-anchor="middle" font-family="Arial, Helvetica, sans-serif" font-size="158" font-weight="700" letter-spacing="-10" fill="#241d18">JK</text>
</svg>
