<svg width="1200" height="1200" viewBox="0 0 1200 1200" fill="none" xmlns="http://www.w3.org/2000/svg">
  <rect width="1200" height="1200" rx="160" fill="#F5F8FF"/>
  <g filter="url(#blurB)">
    <circle cx="316" cy="800" r="258" fill="#8BC4FF"/>
    <circle cx="844" cy="680" r="266" fill="#9FD1FF"/>
    <circle cx="640" cy="292" r="228" fill="#FFE2B0"/>
  </g>
  <g filter="url(#glass)">
    <path d="M238 296C238 241.876 281.876 198 336 198H864C918.124 198 962 241.876 962 296V866C962 920.124 918.124 964 864 964H336C281.876 964 238 920.124 238 866V296Z" fill="url(#panel)" fill-opacity="0.76"/>
    <circle cx="600" cy="570" r="196" fill="white" fill-opacity="0.18"/>
    <path d="M324 734C324 705.281 347.281 682 376 682H824C852.719 682 876 705.281 876 734V836C876 864.719 852.719 888 824 888H376C347.281 888 324 864.719 324 836V734Z" fill="#0B1018" fill-opacity="0.18"/>
  </g>
  <path d="M362 330C442.333 382.667 521.667 409 600 409C678.333 409 756 382.667 833 330" stroke="white" stroke-opacity="0.34" stroke-width="18" stroke-linecap="round"/>
  <path d="M408 560C480 610.667 545.333 636 604 636C662.667 636 723.333 610.667 786 560" stroke="white" stroke-opacity="0.28" stroke-width="14" stroke-linecap="round"/>
  <defs>
    <filter id="blurB" x="-2" y="-26" width="1128" height="1120" filterUnits="userSpaceOnUse" color-interpolation-filters="sRGB">
      <feFlood flood-opacity="0" result="BackgroundImageFix"/>
      <feBlend mode="normal" in="SourceGraphic" in2="BackgroundImageFix" result="shape"/>
      <feGaussianBlur stdDeviation="56" result="effect1_foregroundBlur_1_1"/>
    </filter>
    <filter id="glass" x="188" y="152" width="824" height="862" filterUnits="userSpaceOnUse" color-interpolation-filters="sRGB">
      <feFlood flood-opacity="0" result="BackgroundImageFix"/>
      <feGaussianBlur in="BackgroundImageFix" stdDeviation="18"/>
      <feComposite in2="SourceAlpha" operator="in" result="effect1_backgroundBlur_1_1"/>
      <feBlend mode="normal" in="SourceGraphic" in2="effect1_backgroundBlur_1_1" result="shape"/>
      <feColorMatrix in="SourceAlpha" type="matrix" values="0 0 0 0 0 0 0 0 0 0 0 0 0 0 0 0 0 0 127 0" result="hardAlpha"/>
      <feOffset dx="10" dy="12"/>
      <feGaussianBlur stdDeviation="16"/>
      <feComposite in2="hardAlpha" operator="arithmetic" k2="-1" k3="1"/>
      <feColorMatrix type="matrix" values="0 0 0 0 0.16 0 0 0 0 0.19 0 0 0 0 0.3 0 0 0 0.24 0"/>
      <feBlend mode="normal" in2="shape" result="effect2_innerShadow_1_1"/>
    </filter>
    <linearGradient id="panel" x1="278" y1="218" x2="918" y2="932" gradientUnits="userSpaceOnUse">
      <stop stop-color="white" stop-opacity="0.58"/>
      <stop offset="1" stop-color="#08111C" stop-opacity="0.24"/>
    </linearGradient>
  </defs>
</svg>
